<svg width="47" height="57" viewBox="0 0 47 57" fill="none" xmlns="http://www.w3.org/2000/svg">
<path fill-rule="evenodd" clip-rule="evenodd" d="M0.411133 56.1437V1.05634H45.9774V56.1437H0.411133ZM2.75306 53.8005H43.748V3.39952H2.75306V53.8005ZM40.0099 7.15087H6.3898V18.9907H40.0099V7.15087ZM8.73173 16.7602H37.7806V9.3814H8.73173V16.7602ZM8.73173 26.3695H13.1791V28.7127H8.73173V26.3695ZM25.4742 26.3695H21.0268V28.7127H25.4742V26.3695ZM33.2094 26.3695H37.6568V28.7127H33.2094V26.3695ZM13.1791 32.4753H8.73173V34.8185H13.1791V32.4753ZM21.0268 32.4753H25.4742V34.8185H21.0268V32.4753ZM37.6568 32.4753H33.2094V34.8185H37.6568V32.4753ZM8.73173 38.4684H13.1791V40.8116H8.73173V38.4684ZM25.4742 38.4684H21.0268V40.8116H25.4742V38.4684ZM33.2094 38.4684H37.6568V40.8116H33.2094V38.4684ZM13.1791 44.777H8.73173V47.1202H13.1791V44.777ZM21.0268 44.777H25.4742V47.1202H21.0268V44.777ZM37.6568 44.777H33.2094V47.1202H37.6568V44.777Z" fill="white"/>
<path d="M0.411133 1.05634V0.744335H0.0991328V1.05634H0.411133ZM0.411133 56.1437H0.0991328V56.4557H0.411133V56.1437ZM45.9774 1.05634H46.2894V0.744335H45.9774V1.05634ZM45.9774 56.1437V56.4557H46.2894V56.1437H45.9774ZM43.748 53.8005V54.1125H44.06V53.8005H43.748ZM2.75306 53.8005H2.44106V54.1125H2.75306V53.8005ZM43.748 3.39952H44.06V3.08752H43.748V3.39952ZM2.75306 3.39952V3.08752H2.44106V3.39952H2.75306ZM6.3898 7.15087V6.83887H6.0778V7.15087H6.3898ZM40.0099 7.15087H40.3219V6.83887H40.0099V7.15087ZM6.3898 18.9907H6.0778V19.3027H6.3898V18.9907ZM40.0099 18.9907V19.3027H40.3219V18.9907H40.0099ZM37.7806 16.7602V17.0722H38.0926V16.7602H37.7806ZM8.73173 16.7602H8.41973V17.0722H8.73173V16.7602ZM37.7806 9.3814H38.0926V9.0694H37.7806V9.3814ZM8.73173 9.3814V9.0694H8.41973V9.3814H8.73173ZM13.1791 26.3695H13.4911V26.0575H13.1791V26.3695ZM8.73173 26.3695V26.0575H8.41973V26.3695H8.73173ZM13.1791 28.7127V29.0247H13.4911V28.7127H13.1791ZM8.73173 28.7127H8.41973V29.0247H8.73173V28.7127ZM21.0268 26.3695V26.0575H20.7148V26.3695H21.0268ZM25.4742 26.3695H25.7862V26.0575H25.4742V26.3695ZM21.0268 28.7127H20.7148V29.0247H21.0268V28.7127ZM25.4742 28.7127V29.0247H25.7862V28.7127H25.4742ZM37.6568 26.3695H37.9688V26.0575H37.6568V26.3695ZM33.2094 26.3695V26.0575H32.8974V26.3695H33.2094ZM37.6568 28.7127V29.0247H37.9688V28.7127H37.6568ZM33.2094 28.7127H32.8974V29.0247H33.2094V28.7127ZM8.73173 32.4753V32.1633H8.41973V32.4753H8.73173ZM13.1791 32.4753H13.4911V32.1633H13.1791V32.4753ZM8.73173 34.8185H8.41973V35.1305H8.73173V34.8185ZM13.1791 34.8185V35.1305H13.4911V34.8185H13.1791ZM25.4742 32.4753H25.7862V32.1633H25.4742V32.4753ZM21.0268 32.4753V32.1633H20.7148V32.4753H21.0268ZM25.4742 34.8185V35.1305H25.7862V34.8185H25.4742ZM21.0268 34.8185H20.7148V35.1305H21.0268V34.8185ZM33.2094 32.4753V32.1633H32.8974V32.4753H33.2094ZM37.6568 32.4753H37.9688V32.1633H37.6568V32.4753ZM33.2094 34.8185H32.8974V35.1305H33.2094V34.8185ZM37.6568 34.8185V35.1305H37.9688V34.8185H37.6568ZM13.1791 38.4684H13.4911V38.1564H13.1791V38.4684ZM8.73173 38.4684V38.1564H8.41973V38.4684H8.73173ZM13.1791 40.8116V41.1236H13.4911V40.8116H13.1791ZM8.73173 40.8116H8.41973V41.1236H8.73173V40.8116ZM21.0268 38.4684V38.1564H20.7148V38.4684H21.0268ZM25.4742 38.4684H25.7862V38.1564H25.4742V38.4684ZM21.0268 40.8116H20.7148V41.1236H21.0268V40.8116ZM25.4742 40.8116V41.1236H25.7862V40.8116H25.4742ZM37.6568 38.4684H37.9688V38.1564H37.6568V38.4684ZM33.2094 38.4684V38.1564H32.8974V38.4684H33.2094ZM37.6568 40.8116V41.1236H37.9688V40.8116H37.6568ZM33.2094 40.8116H32.8974V41.1236H33.2094V40.8116ZM8.73173 44.777V44.465H8.41973V44.777H8.73173ZM13.1791 44.777H13.4911V44.465H13.1791V44.777ZM8.73173 47.1202H8.41973V47.4322H8.73173V47.1202ZM13.1791 47.1202V47.4322H13.4911V47.1202H13.1791ZM25.4742 44.777H25.7862V44.465H25.4742V44.777ZM21.0268 44.777V44.465H20.7148V44.777H21.0268ZM25.4742 47.1202V47.4322H25.7862V47.1202H25.4742ZM21.0268 47.1202H20.7148V47.4322H21.0268V47.1202ZM33.2094 44.777V44.465H32.8974V44.777H33.2094ZM37.6568 44.777H37.9688V44.465H37.6568V44.777ZM33.2094 47.1202H32.8974V47.4322H33.2094V47.1202ZM37.6568 47.1202V47.4322H37.9688V47.1202H37.6568ZM0.0991328 1.05634V56.1437H0.723133V1.05634H0.0991328ZM45.9774 0.744335H0.411133V1.36834H45.9774V0.744335ZM46.2894 56.1437V1.05634H45.6654V56.1437H46.2894ZM0.411133 56.4557H45.9774V55.8317H0.411133V56.4557ZM43.748 53.4885H2.75306V54.1125H43.748V53.4885ZM43.436 3.39952V53.8005H44.06V3.39952H43.436ZM2.75306 3.71152H43.748V3.08752H2.75306V3.71152ZM3.06506 53.8005V3.39952H2.44106V53.8005H3.06506ZM6.3898 7.46287H40.0099V6.83887H6.3898V7.46287ZM6.7018 18.9907V7.15087H6.0778V18.9907H6.7018ZM40.0099 18.6787H6.3898V19.3027H40.0099V18.6787ZM39.6979 7.15087V18.9907H40.3219V7.15087H39.6979ZM37.7806 16.4482H8.73173V17.0722H37.7806V16.4482ZM37.4686 9.3814V16.7602H38.0926V9.3814H37.4686ZM8.73173 9.6934H37.7806V9.0694H8.73173V9.6934ZM9.04373 16.7602V9.3814H8.41973V16.7602H9.04373ZM13.1791 26.0575H8.73173V26.6815H13.1791V26.0575ZM13.4911 28.7127V26.3695H12.8671V28.7127H13.4911ZM8.73173 29.0247H13.1791V28.4007H8.73173V29.0247ZM8.41973 26.3695V28.7127H9.04373V26.3695H8.41973ZM21.0268 26.6815H25.4742V26.0575H21.0268V26.6815ZM21.3388 28.7127V26.3695H20.7148V28.7127H21.3388ZM25.4742 28.4007H21.0268V29.0247H25.4742V28.4007ZM25.1622 26.3695V28.7127H25.7862V26.3695H25.1622ZM37.6568 26.0575H33.2094V26.6815H37.6568V26.0575ZM37.9688 28.7127V26.3695H37.3448V28.7127H37.9688ZM33.2094 29.0247H37.6568V28.4007H33.2094V29.0247ZM32.8974 26.3695V28.7127H33.5214V26.3695H32.8974ZM8.73173 32.7873H13.1791V32.1633H8.73173V32.7873ZM9.04373 34.8185V32.4753H8.41973V34.8185H9.04373ZM13.1791 34.5065H8.73173V35.1305H13.1791V34.5065ZM12.8671 32.4753V34.8185H13.4911V32.4753H12.8671ZM25.4742 32.1633H21.0268V32.7873H25.4742V32.1633ZM25.7862 34.8185V32.4753H25.1622V34.8185H25.7862ZM21.0268 35.1305H25.4742V34.5065H21.0268V35.1305ZM20.7148 32.4753V34.8185H21.3388V32.4753H20.7148ZM33.2094 32.7873H37.6568V32.1633H33.2094V32.7873ZM33.5214 34.8185V32.4753H32.8974V34.8185H33.5214ZM37.6568 34.5065H33.2094V35.1305H37.6568V34.5065ZM37.3448 32.4753V34.8185H37.9688V32.4753H37.3448ZM13.1791 38.1564H8.73173V38.7804H13.1791V38.1564ZM13.4911 40.8116V38.4684H12.8671V40.8116H13.4911ZM8.73173 41.1236H13.1791V40.4996H8.73173V41.1236ZM8.41973 38.4684V40.8116H9.04373V38.4684H8.41973ZM21.0268 38.7804H25.4742V38.1564H21.0268V38.7804ZM21.3388 40.8116V38.4684H20.7148V40.8116H21.3388ZM25.4742 40.4996H21.0268V41.1236H25.4742V40.4996ZM25.1622 38.4684V40.8116H25.7862V38.4684H25.1622ZM37.6568 38.1564H33.2094V38.7804H37.6568V38.1564ZM37.9688 40.8116V38.4684H37.3448V40.8116H37.9688ZM33.2094 41.1236H37.6568V40.4996H33.2094V41.1236ZM32.8974 38.4684V40.8116H33.5214V38.4684H32.8974ZM8.73173 45.089H13.1791V44.465H8.73173V45.089ZM9.04373 47.1202V44.777H8.41973V47.1202H9.04373ZM13.1791 46.8082H8.73173V47.4322H13.1791V46.8082ZM12.8671 44.777V47.1202H13.4911V44.777H12.8671ZM25.4742 44.465H21.0268V45.089H25.4742V44.465ZM25.7862 47.1202V44.777H25.1622V47.1202H25.7862ZM21.0268 47.4322H25.4742V46.8082H21.0268V47.4322ZM20.7148 44.777V47.1202H21.3388V44.777H20.7148ZM33.2094 45.089H37.6568V44.465H33.2094V45.089ZM33.5214 47.1202V44.777H32.8974V47.1202H33.5214ZM37.6568 46.8082H33.2094V47.4322H37.6568V46.8082ZM37.3448 44.777V47.1202H37.9688V44.777H37.3448Z" fill="white"/>
</svg>
