<svg width="16" height="16" viewBox="0 0 16 16" fill="none" xmlns="http://www.w3.org/2000/svg">
<path fill-rule="evenodd" clip-rule="evenodd" d="M15.4496 6.74984C15.6707 6.74984 15.9264 6.91463 15.9511 7.13391C16.0171 7.72468 16.0163 8.32125 15.9476 8.90777C15.9205 9.13606 15.7147 9.30833 15.4911 9.29016L15.3946 9.28767C14.7051 9.28767 14.0641 9.71243 13.7989 10.345C13.5169 11.0171 13.693 11.7993 14.2359 12.2909C14.4062 12.4449 14.4265 12.705 14.2825 12.8837C13.9116 13.3457 13.4873 13.7654 13.0206 14.1313C12.841 14.27 12.5862 14.2498 12.432 14.082C11.9679 13.5723 11.1421 13.3804 10.5002 13.6425C9.83613 13.9144 9.40678 14.583 9.43295 15.3059C9.44056 15.5328 9.27298 15.7276 9.04678 15.7526C8.76138 15.7843 8.47591 15.8 8.19051 15.8C7.88983 15.8 7.58998 15.7827 7.29192 15.7479C7.06409 15.7217 6.89559 15.5218 6.90911 15.2922C6.95055 14.5614 6.52706 13.8809 5.8538 13.5993C5.21101 13.3295 4.37592 13.5205 3.90924 14.0367C3.75432 14.2074 3.49428 14.2277 3.31556 14.0837C2.85991 13.717 2.44402 13.297 2.08159 12.8353C1.94094 12.6571 1.96213 12.4009 2.12901 12.2476C2.66256 11.7585 2.83785 10.9836 2.56516 10.3188C2.29159 9.65311 1.63946 9.23258 0.96022 9.24994C0.73669 9.24994 0.473225 9.08661 0.44873 8.86639C0.382675 8.27563 0.383488 7.67853 0.452097 7.09253C0.479146 6.86767 0.655311 6.70166 0.90264 6.70962C1.66483 6.70962 2.3306 6.29641 2.59987 5.65526C2.88191 4.98277 2.70661 4.20069 2.16372 3.70907C1.99435 3.55496 1.97316 3.29533 2.11717 3.11621C2.48639 2.65547 2.91157 2.23546 3.37906 1.86869C3.55772 1.72944 3.81434 1.75011 3.96769 1.9182C4.4317 2.42852 5.26099 2.61826 5.89861 2.35782C6.56351 2.08548 6.99211 1.41688 6.96669 0.693601C6.95909 0.467058 7.12678 0.272265 7.35292 0.247306C7.93731 0.182472 8.52508 0.184561 9.10773 0.25195C9.33648 0.278591 9.50417 0.478086 9.49053 0.707532C9.44909 1.43801 9.87259 2.11851 10.5442 2.401C11.1895 2.67027 12.0247 2.4789 12.4896 1.964C12.6438 1.79329 12.9046 1.77344 13.0824 1.91611C13.5364 2.27981 13.9523 2.69946 14.3181 3.16404C14.4588 3.34229 14.4384 3.5989 14.2707 3.75219C13.738 4.24086 13.5627 5.0162 13.8345 5.68103C14.1005 6.33013 14.7348 6.74984 15.4496 6.74984ZM5.61048 8.01652C5.61048 9.45123 6.77752 10.6183 8.21227 10.6183C9.64697 10.6183 10.814 9.45123 10.814 8.01652C10.814 6.58186 9.64697 5.41479 8.21227 5.41479C6.77752 5.41479 5.61048 6.58186 5.61048 8.01652Z" fill="white"/>
</svg>
