<svg width="95" height="57" viewBox="0 0 95 57" fill="none" xmlns="http://www.w3.org/2000/svg">
<path fill-rule="evenodd" clip-rule="evenodd" d="M9.9601 50.0259H84.8401C86.5624 50.0259 87.9601 48.622 87.9601 46.8978V3.12652C87.9601 1.39912 86.5622 0 84.8401 0H9.9601C8.2363 0 6.8401 1.39912 6.8401 3.12805V46.8994C6.8401 48.622 8.2363 50.0259 9.9601 50.0259ZM9.9601 4.68978C9.9601 3.82524 10.6589 3.12652 11.5201 3.12652H83.2801C84.1413 3.12652 84.8401 3.82539 84.8401 4.68978V45.3347C84.8401 46.1959 84.1413 46.8994 83.2801 46.8994H11.5201C10.659 46.8994 9.9601 46.1959 9.9601 45.3347V4.68978ZM2.1601 53.1539H92.6401C93.5013 53.1539 94.2001 53.8525 94.2001 54.7141C94.2001 55.5787 93.5013 56.2791 92.6401 56.2791H2.1601C1.29904 56.2791 0.600098 55.5787 0.600098 54.7141C0.600098 53.8526 1.29904 53.1539 2.1601 53.1539Z" fill="#F16521"/>
<path fill-rule="evenodd" clip-rule="evenodd" d="M31.7467 33.243H28.107L26.4273 29.5931H22.3277V33.2419H19.77V29.5931H16.8V27.0781H19.77V22.7172H16.8V20.2022H19.77V16.3742H23.3806L25.1576 20.2022H29.1704V16.3742H31.7479V20.2022H33.6627V22.7172H31.7479V27.0781H33.6627V29.5931H31.7479V33.243H31.7467ZM29.1704 22.7172H26.325L28.3494 27.0781H29.2333C29.1911 25.8787 29.1704 24.9725 29.1704 24.3582V22.7172ZM22.2581 22.7172H23.2631L25.27 27.0781H22.3277V25.3047C22.3277 24.6986 22.3046 23.8362 22.2581 22.7172Z" fill="#F16521"/>
<path fill-rule="evenodd" clip-rule="evenodd" d="M53.3468 33.243H49.7071L48.0274 29.5931H43.9278V33.2419H41.3701V29.5931H38.4001V27.0781H41.3701V22.7172H38.4001V20.2022H41.3701V16.3742H44.9807L46.7577 20.2022H50.7705V16.3742H53.348V20.2022H55.2628V22.7172H53.348V27.0781H55.2628V29.5931H53.348V33.243H53.3468ZM50.7705 22.7172H47.9251L49.9495 27.0781H50.8334C50.7912 25.8787 50.7705 24.9725 50.7705 24.3582V22.7172ZM43.8582 22.7172H44.8632L46.8701 27.0781H43.9278V25.3047C43.9278 24.6986 43.9047 23.8362 43.8582 22.7172Z" fill="#F16521"/>
<path fill-rule="evenodd" clip-rule="evenodd" d="M74.9467 33.243H71.307L69.6273 29.5931H65.5277V33.2419H62.97V29.5931H60V27.0781H62.97V22.7172H60V20.2022H62.97V16.3742H66.5806L68.3575 20.2022H72.3703V16.3742H74.9478V20.2022H76.8626V22.7172H74.9478V27.0781H76.8626V29.5931H74.9478V33.243H74.9467ZM72.3703 22.7172H69.525L71.5493 27.0781H72.4333C72.3911 25.8787 72.3703 24.9725 72.3703 24.3582V22.7172ZM65.458 22.7172H66.463L68.4699 27.0781H65.5277V25.3047C65.5277 24.6986 65.5046 23.8362 65.458 22.7172Z" fill="#F16521"/>
</svg>
