<svg width="36" height="74" viewBox="0 0 36 74" fill="none" xmlns="http://www.w3.org/2000/svg">
<path d="M18.2132 1.38569C18.9195 1.38569 19.4927 1.94622 19.4927 2.63911V24.9691L24.4015 17.8577C24.7976 17.2841 25.5919 17.1337 26.1773 17.5218C26.7628 17.9098 26.9173 18.689 26.5212 19.2625L19.2736 29.7632C18.9584 30.2195 18.377 30.421 17.8386 30.2596C17.3013 30.0981 16.9338 29.6118 16.9338 29.0613V2.63911C16.9338 1.94622 17.506 1.38569 18.2132 1.38569Z" fill="white"/>
<path d="M10.9636 18.9998L18.2133 29.0603L10.9636 18.9998Z" fill="white"/>
<path d="M10.9627 17.7464C11.365 17.7464 11.76 17.9309 12.0088 18.2768L19.2584 28.3363C19.6658 28.9019 19.5286 29.684 18.9514 30.0831C18.3741 30.4812 17.5747 30.3478 17.1684 29.7823L9.91872 19.7228C9.51135 19.1572 9.64748 18.3741 10.2258 17.976C10.4499 17.8216 10.7079 17.7464 10.9627 17.7464Z" fill="white"/>
<path d="M29.2111 16.2272H35.384V73.23H1.04053V16.2272H7.14793V18.7341H3.59935V70.7231H32.8252V18.7341H29.2111" fill="white"/>
<path d="M29.2111 23.0058H34.1046V25.5126H27.51L29.2111 23.0058Z" fill="white"/>
<path d="M8.59737 25.5126H2.32007V23.0058H7.14806L8.59737 25.5126Z" fill="white"/>
<rect x="2.32007" y="58.0004" width="31.7847" height="2.50685" fill="white"/>
<path d="M18.2122 67.5194C19.2297 67.5194 20.0546 66.7113 20.0546 65.7144C20.0546 64.7176 19.2297 63.9095 18.2122 63.9095C17.1947 63.9095 16.3699 64.7176 16.3699 65.7144C16.3699 66.7113 17.1947 67.5194 18.2122 67.5194Z" fill="white"/>
<path d="M23.7793 49.4149H20.5808L15.4202 38.4911H15.3475C15.4509 40.4203 15.5021 41.7961 15.5021 42.6193V49.4139H13.2544V34.9745H16.4273L21.5808 45.789H21.6371C21.5552 43.9129 21.5153 42.5873 21.5153 41.8091V34.9745H23.7804V49.4149H23.7793Z" fill="white"/>
<path d="M10.6443 44.1375H25.4629V46.2904H10.6443V44.1375Z" fill="white"/>
<path d="M10.6443 38.2514H25.4629V40.4043H10.6443V38.2514Z" fill="white"/>
</svg>
