<svg width="28" height="28" viewBox="0 0 28 28" fill="none" xmlns="http://www.w3.org/2000/svg">
<path fill-rule="evenodd" clip-rule="evenodd" d="M20.8525 19.4852L27.5612 26.1925C27.8795 26.5107 27.8795 27.037 27.5612 27.3552C27.4021 27.5204 27.1878 27.6 26.9797 27.6C26.7716 27.6 26.5574 27.5143 26.3982 27.3552L19.6895 20.648C17.6206 22.4472 14.9212 23.5365 11.9708 23.5365C5.48245 23.5365 0.199951 18.2552 0.199951 11.7682C0.199951 5.28133 5.47633 0 11.9708 0C18.4592 0 23.7417 5.27521 23.7417 11.7682C23.7417 14.718 22.6521 17.4168 20.8525 19.4852ZM11.9647 1.65233C6.38837 1.65233 1.84652 6.18705 1.84652 11.7682C1.84652 17.3494 6.38837 21.8903 11.9647 21.8903C17.5471 21.8903 22.0829 17.3433 22.0829 11.7682C22.0829 6.19317 17.5471 1.65233 11.9647 1.65233Z" fill="#979797"/>
</svg>
