<svg width="14" height="20" viewBox="0 0 14 20" fill="none" xmlns="http://www.w3.org/2000/svg">
<path d="M13.1328 8.92381C13.0284 8.72461 12.8232 8.59981 12.5988 8.59981H8.3988V1.39981C8.3988 1.13821 8.2296 0.907211 7.9812 0.828011C7.7316 0.749411 7.461 0.840011 7.3098 1.05361L0.109798 11.2536C-0.0192025 11.4372 -0.0360025 11.6766 0.0671975 11.8758C0.169198 12.075 0.374398 12.1998 0.598798 12.1998H4.7988V19.3998C4.7988 19.6614 4.968 19.8912 5.217 19.9716C5.277 19.9896 5.3382 19.9998 5.3988 19.9998C5.5902 19.9998 5.7744 19.9086 5.889 19.746L13.089 9.54601C13.218 9.36241 13.236 9.12301 13.1328 8.92381Z" fill="#B4B4B4"/>
</svg>
